<?xml version="1.0" encoding="UTF-8" standalone="no"?>
<svg
   version="1.1"
   width="881.08337"
   height="830.57153"
   viewBox="0 0 881.08338 830.57155"
   id="svg35"
   sodipodi:docname="favicon_dark.svg"
   inkscape:version="1.1 (c4e8f9ed74, 2021-05-24)"
   xmlns:inkscape="http://www.inkscape.org/namespaces/inkscape"
   xmlns:sodipodi="http://sodipodi.sourceforge.net/DTD/sodipodi-0.dtd"
   xmlns="http://www.w3.org/2000/svg"
   xmlns:svg="http://www.w3.org/2000/svg">
  <defs
     id="defs39" />
  <sodipodi:namedview
     id="namedview37"
     pagecolor="#ffffff"
     bordercolor="#666666"
     borderopacity="1.0"
     inkscape:pageshadow="2"
     inkscape:pageopacity="0.0"
     inkscape:pagecheckerboard="0"
     showgrid="false"
     inkscape:zoom="0.20836337"
     inkscape:cx="-667.10381"
     inkscape:cy="1053.4481"
     inkscape:window-width="1920"
     inkscape:window-height="1017"
     inkscape:window-x="0"
     inkscape:window-y="0"
     inkscape:window-maximized="1"
     inkscape:current-layer="g33" />
  <g
     transform="matrix(9.5769929,0,0,9.5769929,-1053.4692,-574.61958)"
     id="g33"
     style="fill:#1a1a1a">
    <defs
       id="SvgjsDefs1666" />
    <g
       id="SvgjsG1668"
       featureKey="symbolFeature-0"
       transform="matrix(1.0222479,0,0,1.0222479,102.83835,53.212078)"
       fill="#ffffff"
       style="fill:#f9f9f9">
      <g
         id="g24"
         style="fill:#f9f9f9">
        <g
           id="g14"
           style="fill:#f9f9f9">
          <path
             d="m 60.3,73.2 c -2.9,-0.7 -5.9,1.1 -6.7,4 l -0.1,0.3 c -1.2,5.3 -4.4,9.9 -8.9,12.9 0.7,0.3 1.5,0.5 2.2,0.7 7.8,1.8 15.6,-3 17.6,-10.6 l 0.1,-0.4 c 0.8,-3.2 -1.1,-6.2 -4.2,-6.9 z"
             id="path6"
             style="fill:#f9f9f9" />
          <path
             d="m 53.5,60.5 c 1.4,-0.2 2.9,-0.2 4.7,0 l 1.2,0.2 0.2,-2.1 v -0.1 c 0,0 0,-0.3 0.2,-1 L 60.2,56.2 58.9,56 c -1.3,-0.2 -2.5,-0.3 -3.6,-0.3 -2.4,0 -4.6,0.4 -6.7,1.3 -6.1,2.6 -7.8,9.3 -9.3,15.1 -0.5,1.8 -0.9,3.6 -1.5,5.1 -1.6,4.3 -5,6.7 -9.3,6.7 -1.1,0 -2.3,-0.2 -3.5,-0.5 C 19.8,82 16.2,77.3 13.9,73.8 9.6,65.1 12.8,55.3 16.5,46 20.3,36.3 24.8,26.4 33.9,21 40.8,16.9 50.4,16.6 62.1,20.2 67.5,21.8 72.2,24 76,26.7 l 1,0.7 2.4,-4.1 -0.9,-0.6 C 73.6,19.3 67.5,16.6 60,14.7 49.9,12.1 40.4,12.6 32.7,16.3 23.6,20.7 18.4,30 14.5,38.6 8.9,51 3.8,64.1 9.5,75.7 c 0.1,0.2 0.1,0.3 0.2,0.4 0.1,0.1 0.2,0.3 0.3,0.4 3.7,5.6 10,12.3 18.4,12.3 0.6,0 1.2,0 1.8,-0.1 C 40,87.6 42.4,79 44.5,71.5 l 0.4,-1.4 c 1.6,-5.9 4.3,-8.8 8.6,-9.6 z"
             id="path8"
             style="fill:#f9f9f9" />
          <path
             d="M 93.1,35.3 C 91.9,33.4 90.4,31.6 88.6,29.8 L 87.3,28.5 85.4,33.3 86,34 c 3.3,3.5 5.3,7.5 6.1,11.9 0.8,4.7 -0.8,9.6 -4.4,13.2 -2.1,2.1 -4.8,3.1 -8.4,3.1 -1.2,0 -2.6,-0.1 -4,-0.4 L 74.4,61.6 74,62.5 c -0.3,0.7 -0.7,1.5 -1,2.1 l -0.8,1.4 1.6,0.3 c 1.8,0.4 3.6,0.5 5.2,0.5 6,0 10.8,-2.4 14.4,-7.1 5.7,-7.5 3.9,-17.9 -0.3,-24.4 z"
             id="path10"
             style="fill:#f9f9f9" />
          <path
             d="M 72.7,61.3 87.2,24.4 88.4,21.3 93.6,8.2 c 0.1,-0.1 0,-0.3 -0.1,-0.4 L 92,6.7 C 91.8,6.6 91.6,6.6 91.5,6.9 l -6.2,10.4 -1.5,2.6 -21.3,35.6 c -0.3,0.5 -0.8,1.5 -1.1,2.4 -0.2,0.7 -0.4,1.3 -0.5,1.8 l -0.2,1 -1.5,7.6 c 0,0 0,0 0,0.1 -0.1,1 0.5,2.3 1.3,2.6 l 3.2,1.8 c 0.8,0.4 1.9,0.2 2.6,-0.6 0,0 0,0 0,-0.1 l 3.8,-5.9 c 0.2,-0.2 0.5,-0.8 0.9,-1.5 0.5,-0.9 1,-2 1.3,-2.8 0.2,-0.1 0.3,-0.4 0.4,-0.6 z"
             id="path12"
             style="fill:#f9f9f9" />
        </g>
        <circle
           cx="25.1"
           cy="67.900002"
           r="5.9000001"
           id="circle16"
           style="fill:#f9f9f9" />
        <circle
           cx="30.9"
           cy="48.299999"
           r="5.9000001"
           id="circle18"
           style="fill:#f9f9f9" />
        <circle
           cx="42.299999"
           cy="31.4"
           r="5.9000001"
           id="circle20"
           style="fill:#f9f9f9" />
        <circle
           cx="61.400002"
           cy="31.4"
           r="5.9000001"
           id="circle22"
           style="fill:#f9f9f9" />
      </g>
    </g>
  </g>
</svg>
