<?xml version="1.0" encoding="UTF-8" standalone="no"?>
<svg
   version="1.1"
   width="3184.3501246016667"
   height="3191.539857118897"
   viewBox="0 0 3184.3501246016667 3191.539857118897"
   id="svg35"
   sodipodi:docname="logo_dark.svg"
   inkscape:version="1.1 (c4e8f9ed74, 2021-05-24)"
   xmlns:inkscape="http://www.inkscape.org/namespaces/inkscape"
   xmlns:sodipodi="http://sodipodi.sourceforge.net/DTD/sodipodi-0.dtd"
   xmlns="http://www.w3.org/2000/svg"
   xmlns:svg="http://www.w3.org/2000/svg">
  <defs
     id="defs39" />
  <sodipodi:namedview
     id="namedview37"
     pagecolor="#ffffff"
     bordercolor="#666666"
     borderopacity="1.0"
     inkscape:pageshadow="2"
     inkscape:pageopacity="0.0"
     inkscape:pagecheckerboard="0"
     showgrid="false"
     inkscape:zoom="0.20836337"
     inkscape:cx="1593.3702"
     inkscape:cy="1595.7699"
     inkscape:window-width="1920"
     inkscape:window-height="1017"
     inkscape:window-x="0"
     inkscape:window-y="0"
     inkscape:window-maximized="1"
     inkscape:current-layer="svg35" />
  <g
     transform="matrix(9.5769929,0,0,9.5769929,95.769929,95.769929)"
     id="g33"
     style="fill:#1a1a1a">
    <defs
       id="SvgjsDefs1666" />
    <g
       id="SvgjsG1667"
       featureKey="rootContainer"
       transform="scale(2.903158)"
       fill="#ffffff"
       style="fill:#1a1a1a">
      <path
         d="m 4.6,5.1 h 98.3 v 24.1 c 0.1,2.9 0.1,6 0.2,8.1 0.1,2.1 0.1,1 0.1,0.8 a 61.5,61.5 0 0 0 0.3,-6.7 v -4.2 c 0.1,-6.7 0,-13.5 0,-20.2 V 4.3 H 4.6 V 0.8 h 102.3 v 24.1 c 0.1,2.9 0.1,6 0.2,8.1 0.1,2.1 0.1,1 0.1,0.8 a 61.5,61.5 0 0 0 0.3,-6.7 v -4.2 c 0.1,-6.7 0,-13.5 0,-20.2 V 0 H 4 V 4.5 H 0 v 47.1 c 0.1,2.7 0.1,5.8 0,8.7 v 47.6 h 43.5 l 16.7,-0.2 h 10.9 a 64.7,64.7 0 0 0 8.1,-0.3 H 0.7 V 36.7 C 0.6,31.5 0.6,26.3 0.6,21 V 5.1 H 4 V 47.2 C 3.9,49.9 3.9,53 3.9,56 v 47.6 h 43.6 l 16.7,-0.2 h 10.9 a 64.7,64.7 0 0 0 8.1,-0.3 H 4.7 V 16.7 C 4.7,11.4 4.6,9 4.6,5.1 Z m 103,53.2 v -4.7 l -0.2,-7.8 c -0.1,-3.2 -0.2,-3.8 -0.3,-3.8 0,1.9 -0.1,3.9 -0.1,5.9 v 17.3 c 0,3.1 0,6.3 -0.1,9.2 v 15.7 c 0,3.3 0,6.3 0.1,9.3 v 3.9 l -1.9,-0.2 h -1.7 q 0.1,-2.4 0.1,-5.2 V 73.6 c 0,-3.5 0.1,-6.9 0.1,-10.8 v -4.7 l -0.2,-7.8 c -0.1,-3.2 -0.2,-3.8 -0.3,-3.8 0,1.9 -0.1,3.9 -0.1,5.9 v 17.3 c 0,3.1 0,6.3 -0.1,9.2 v 15.7 c 0,3.3 0,5.8 0.1,8.5 H 92.4 c -0.4,0.1 -1.3,0.1 -0.9,0.1 l 3.5,0.2 h 8 v 4.2 l -1.9,-0.2 H 88.4 c -0.4,0.1 -1.3,0.1 -0.9,0.1 l 3.5,0.2 h 12.1 c 0.1,0.3 0.1,0.1 0.2,-1.2 0.1,-1.3 0.1,-2 0.1,-3 h 3.7 c 0.1,0.3 0.1,0.1 0.2,-1.2 0.1,-1.3 0.1,-5.3 0.2,-8.7 V 69.3 c 0.1,-3.8 0.2,-7.2 0.1,-11 z"
         id="path3"
         style="fill:#1a1a1a" />
    </g>
    <g
       id="SvgjsG1668"
       featureKey="symbolFeature-0"
       transform="matrix(1.0222479,0,0,1.0222479,102.83835,53.212078)"
       fill="#ffffff"
       style="fill:#1a1a1a">
      <g
         id="g24"
         style="fill:#1a1a1a">
        <g
           id="g14"
           style="fill:#1a1a1a">
          <path
             d="m 60.3,73.2 c -2.9,-0.7 -5.9,1.1 -6.7,4 l -0.1,0.3 c -1.2,5.3 -4.4,9.9 -8.9,12.9 0.7,0.3 1.5,0.5 2.2,0.7 7.8,1.8 15.6,-3 17.6,-10.6 l 0.1,-0.4 c 0.8,-3.2 -1.1,-6.2 -4.2,-6.9 z"
             id="path6"
             style="fill:#1a1a1a" />
          <path
             d="m 53.5,60.5 c 1.4,-0.2 2.9,-0.2 4.7,0 l 1.2,0.2 0.2,-2.1 v -0.1 c 0,0 0,-0.3 0.2,-1 L 60.2,56.2 58.9,56 c -1.3,-0.2 -2.5,-0.3 -3.6,-0.3 -2.4,0 -4.6,0.4 -6.7,1.3 -6.1,2.6 -7.8,9.3 -9.3,15.1 -0.5,1.8 -0.9,3.6 -1.5,5.1 -1.6,4.3 -5,6.7 -9.3,6.7 -1.1,0 -2.3,-0.2 -3.5,-0.5 C 19.8,82 16.2,77.3 13.9,73.8 9.6,65.1 12.8,55.3 16.5,46 20.3,36.3 24.8,26.4 33.9,21 40.8,16.9 50.4,16.6 62.1,20.2 67.5,21.8 72.2,24 76,26.7 l 1,0.7 2.4,-4.1 -0.9,-0.6 C 73.6,19.3 67.5,16.6 60,14.7 49.9,12.1 40.4,12.6 32.7,16.3 23.6,20.7 18.4,30 14.5,38.6 8.9,51 3.8,64.1 9.5,75.7 c 0.1,0.2 0.1,0.3 0.2,0.4 0.1,0.1 0.2,0.3 0.3,0.4 3.7,5.6 10,12.3 18.4,12.3 0.6,0 1.2,0 1.8,-0.1 C 40,87.6 42.4,79 44.5,71.5 l 0.4,-1.4 c 1.6,-5.9 4.3,-8.8 8.6,-9.6 z"
             id="path8"
             style="fill:#1a1a1a" />
          <path
             d="M 93.1,35.3 C 91.9,33.4 90.4,31.6 88.6,29.8 L 87.3,28.5 85.4,33.3 86,34 c 3.3,3.5 5.3,7.5 6.1,11.9 0.8,4.7 -0.8,9.6 -4.4,13.2 -2.1,2.1 -4.8,3.1 -8.4,3.1 -1.2,0 -2.6,-0.1 -4,-0.4 L 74.4,61.6 74,62.5 c -0.3,0.7 -0.7,1.5 -1,2.1 l -0.8,1.4 1.6,0.3 c 1.8,0.4 3.6,0.5 5.2,0.5 6,0 10.8,-2.4 14.4,-7.1 5.7,-7.5 3.9,-17.9 -0.3,-24.4 z"
             id="path10"
             style="fill:#1a1a1a" />
          <path
             d="M 72.7,61.3 87.2,24.4 88.4,21.3 93.6,8.2 c 0.1,-0.1 0,-0.3 -0.1,-0.4 L 92,6.7 C 91.8,6.6 91.6,6.6 91.5,6.9 l -6.2,10.4 -1.5,2.6 -21.3,35.6 c -0.3,0.5 -0.8,1.5 -1.1,2.4 -0.2,0.7 -0.4,1.3 -0.5,1.8 l -0.2,1 -1.5,7.6 c 0,0 0,0 0,0.1 -0.1,1 0.5,2.3 1.3,2.6 l 3.2,1.8 c 0.8,0.4 1.9,0.2 2.6,-0.6 0,0 0,0 0,-0.1 l 3.8,-5.9 c 0.2,-0.2 0.5,-0.8 0.9,-1.5 0.5,-0.9 1,-2 1.3,-2.8 0.2,-0.1 0.3,-0.4 0.4,-0.6 z"
             id="path12"
             style="fill:#1a1a1a" />
        </g>
        <circle
           cx="25.1"
           cy="67.900002"
           r="5.9000001"
           id="circle16"
           style="fill:#1a1a1a" />
        <circle
           cx="30.9"
           cy="48.299999"
           r="5.9000001"
           id="circle18"
           style="fill:#1a1a1a" />
        <circle
           cx="42.299999"
           cy="31.4"
           r="5.9000001"
           id="circle20"
           style="fill:#1a1a1a" />
        <circle
           cx="61.400002"
           cy="31.4"
           r="5.9000001"
           id="circle22"
           style="fill:#1a1a1a" />
      </g>
    </g>
    <g
       id="SvgjsG1669"
       featureKey="nameFeature-0"
       transform="matrix(1.6196956,0,0,1.6196956,52.76061,154.69031)"
       fill="#ffffff"
       style="fill:#1a1a1a">
      <path
         d="M 2,40 V 8 h 6.08 c 4.12,0 5.48,2.56 5.48,7.16 V 16 c 0,2.76 -0.64,4.92 -1.36,6.48 v 0.16 c 1.48,1.24 2.4,3.68 2.6,7.92 v 1.28 C 14.48,37.48 13,40 8.88,40 Z M 6,21.6 H 8.08 C 9.2,21.6 10,20.28 10,16 V 15.16 C 10,12.08 9.28,11.2 8.08,11.2 H 6 Z M 6,36 h 2.88 c 1.2,0 2.04,-1 2.2,-4.16 V 30.56 C 10.92,25.8 10.08,24.8 8.88,24.8 H 6 Z m 14.1,4 V 8 h 9.2 v 3.2 h -5.2 v 10.4 h 4.4 v 3.2 H 24.1 V 36 h 5.2 v 4 z m 14.5,0 V 8 h 6.48 c 4.12,0 5.52,2.52 5.52,7.36 0,4.36 -0.52,6.84 -1.76,8.04 v 0.24 c 1.04,0.36 1.36,2.24 1.76,6.92 L 47.4,40 h -4 L 42.88,30.56 C 42.6,25.8 41.88,24.8 40.68,24.8 H 38.6 V 40 Z m 4,-18.4 h 2.48 c 1.4,0 1.8,-1.4 1.8,-6.24 0,-3.16 -0.6,-4.16 -1.8,-4.16 H 38.6 Z M 53.1,40 V 8 h 3.6 l 4.2,20 h 0.4 L 65.5,8 h 3.6 v 32 h -4 V 24 l -2.84,16 h -2.4 L 57.1,24 v 16 z m 22.5,0 V 23.2 c 0,-11.16 0,-15.56 6,-15.56 6,0 6,4.4 6,15.56 V 40 h -4 v -9.2 h -4 V 40 Z m 4,-12.4 h 4 v -4.4 c 0,-10.4 0,-12.36 -2,-12.36 -2,0 -2,1.96 -2,12.36 z M 94.1,40 V 8 h 3.6 l 5.24,19.6 -0.04,-0.4 V 8 h 4 v 32 h -3.6 L 98.06,22.4 98.1,22.8 V 40 Z M 113,23.16 C 113,12 113.24,7.6 119.24,7.6 c 6,0 6.24,4.4 6.24,15.56 0,12.8 -0.24,17.24 -6.24,17.24 -6,0 -6.24,-4.44 -6.24,-17.24 z m 4,0 c 0,11.56 0,13.24 2.24,13.24 2.24,0 2.24,-1.68 2.24,-13.24 0,-10.4 0,-12.36 -2.24,-12.36 -2.24,0 -2.24,1.96 -2.24,12.36 z"
         id="path27"
         style="fill:#1a1a1a" />
    </g>
    <g
       id="SvgjsG1670"
       featureKey="sloganFeature-0"
       transform="matrix(1.0543782,0,0,1.0543782,54.300792,232.28967)"
       fill="#ffffff"
       style="fill:#1a1a1a">
      <path
         d="M 2.56,18.78 V 8.02 c 0,-0.54 0.38,-0.66 0.66,-0.66 h 3.2 c 2.64,0 3.94,1.26 3.94,3.74 v 5.12 c 0,1.56 -1.22,3.2 -3.88,3.2 H 3.22 c -0.28,0 -0.66,-0.16 -0.66,-0.64 z M 9.04,16.22 V 11.1 C 9.04,9.46 8.16,8.7 6.42,8.7 H 3.88 v 9.42 h 2.6 c 1.22,0 2.56,-0.66 2.56,-1.9 z m 6.12,2.56 V 8 c 0,-0.42 0.32,-0.64 0.64,-0.64 0.32,0 0.66,0.22 0.66,0.64 v 10.78 c 0,0.86 -1.3,0.86 -1.3,0 z m 6.06,-2.9 v -4.82 c 0,-2.88 1.58,-3.74 3.9,-3.74 1.92,0 3.78,0.98 3.78,3 0,0.44 -0.32,0.66 -0.66,0.66 -0.34,0 -0.68,-0.22 -0.68,-0.66 0,-1.02 -1.12,-1.7 -2.44,-1.7 -1.82,0 -2.58,0.74 -2.58,2.44 v 4.82 c 0,1.74 0.96,2.28 2.58,2.28 1.92,0 2.6,-0.92 2.6,-2.7 v -0.84 h -1.8 c -0.42,0 -0.64,-0.32 -0.64,-0.66 0,-0.34 0.22,-0.68 0.64,-0.68 h 2.5 c 0.4,0 0.62,0.4 0.62,0.68 v 1.5 c 0,2.88 -1.12,4 -3.92,4 -2.64,0 -3.9,-0.96 -3.9,-3.58 z m 12.54,2.9 V 8 c 0,-0.42 0.32,-0.64 0.64,-0.64 0.32,0 0.66,0.22 0.66,0.64 v 10.78 c 0,0.86 -1.3,0.86 -1.3,0 z M 39.7,7.36 h 6.04 c 0.42,0 0.62,0.34 0.62,0.68 0,0.34 -0.2,0.66 -0.62,0.66 h -2.28 v 10.06 c 0,0.42 -0.34,0.64 -0.68,0.64 -0.34,0 -0.66,-0.22 -0.66,-0.64 V 8.7 H 39.7 c -0.42,0 -0.62,-0.32 -0.62,-0.66 0,-0.34 0.2,-0.68 0.62,-0.68 z m 16.76,11.5 -0.78,-2.54 h -3.72 l -0.74,2.5 c -0.26,0.86 -1.58,0.6 -1.3,-0.28 1.04,-3.5 2.06,-7.06 3.08,-10.6 0.12,-0.38 0.44,-0.58 0.76,-0.58 0.3,0 0.62,0.2 0.74,0.58 l 3.18,10.6 c 0.22,0.76 -0.96,1.18 -1.22,0.32 z m -2.66,-8.8 -1.44,4.92 H 55.3 C 54.8,13.3 54.34,11.86 53.8,10.06 Z m 8.32,8.7 V 8 c 0,-0.42 0.32,-0.64 0.64,-0.64 0.32,0 0.66,0.22 0.66,0.64 v 10.06 h 3.98 c 0.44,0 0.68,0.34 0.68,0.68 0,0.34 -0.24,0.66 -0.68,0.66 h -4.62 c -0.4,0 -0.66,-0.32 -0.66,-0.64 z M 86.3,8 v 10.76 c 0,0.42 -0.32,0.64 -0.64,0.64 -0.24,0 -0.56,-0.18 -0.7,-0.44 -1.5,-2.94 -2.62,-5.2 -4.12,-8.16 v 7.96 c 0,0.42 -0.32,0.64 -0.66,0.64 -0.32,0 -0.66,-0.22 -0.66,-0.64 V 8 c 0,-0.7 1,-0.74 1.22,-0.32 l 4.22,8.34 V 8 c 0,-0.42 0.32,-0.64 0.66,-0.64 0.34,0 0.68,0.22 0.68,0.64 z m 5.1,10.76 V 8 c 0,-0.48 0.38,-0.64 0.66,-0.64 h 4.6 c 0.44,0 0.66,0.32 0.66,0.66 0,0.34 -0.22,0.68 -0.66,0.68 h -3.94 v 3.88 h 3.14 c 0.44,0 0.68,0.34 0.68,0.68 0,0.34 -0.24,0.68 -0.68,0.68 h -3.14 v 4.82 c 0,0.42 -0.34,0.64 -0.66,0.64 -0.34,0 -0.66,-0.22 -0.66,-0.64 z m 9.58,-11.4 h 6.04 c 0.42,0 0.62,0.34 0.62,0.68 0,0.34 -0.2,0.66 -0.62,0.66 h -2.28 v 10.06 c 0,0.42 -0.34,0.64 -0.68,0.64 -0.34,0 -0.66,-0.22 -0.66,-0.64 V 8.7 h -2.42 c -0.42,0 -0.62,-0.32 -0.62,-0.66 0,-0.34 0.2,-0.68 0.62,-0.68 z m 18.14,8.52 v -4.82 c 0,-2.88 1.58,-3.74 3.9,-3.74 1.92,0 3.78,0.98 3.78,3 0,0.44 -0.32,0.66 -0.66,0.66 -0.34,0 -0.68,-0.22 -0.68,-0.66 0,-1.02 -1.12,-1.7 -2.44,-1.7 -1.82,0 -2.58,0.74 -2.58,2.44 v 4.82 c 0,1.74 0.96,2.28 2.58,2.28 1.92,0 2.6,-0.92 2.6,-2.7 v -0.84 h -1.8 c -0.42,0 -0.64,-0.32 -0.64,-0.66 0,-0.34 0.22,-0.68 0.64,-0.68 h 2.5 c 0.4,0 0.62,0.4 0.62,0.68 v 1.5 c 0,2.88 -1.12,4 -3.92,4 -2.64,0 -3.9,-0.96 -3.9,-3.58 z m 18.4,2.98 -0.78,-2.54 h -3.72 l -0.74,2.5 c -0.26,0.86 -1.58,0.6 -1.3,-0.28 1.04,-3.5 2.06,-7.06 3.08,-10.6 0.12,-0.38 0.44,-0.58 0.76,-0.58 0.3,0 0.62,0.2 0.74,0.58 l 3.18,10.6 c 0.22,0.76 -0.96,1.18 -1.22,0.32 z m -2.66,-8.8 -1.44,4.92 h 2.94 c -0.5,-1.68 -0.96,-3.12 -1.5,-4.92 z m 8.32,8.7 V 8 c 0,-0.42 0.32,-0.64 0.64,-0.64 0.32,0 0.66,0.22 0.66,0.64 v 10.06 h 3.98 c 0.44,0 0.68,0.34 0.68,0.68 0,0.34 -0.24,0.66 -0.68,0.66 h -4.62 c -0.4,0 -0.66,-0.32 -0.66,-0.64 z m 9.92,0 V 8 c 0,-0.42 0.32,-0.64 0.64,-0.64 0.32,0 0.66,0.22 0.66,0.64 v 10.06 h 3.98 c 0.44,0 0.68,0.34 0.68,0.68 0,0.34 -0.24,0.66 -0.68,0.66 h -4.62 c -0.4,0 -0.66,-0.32 -0.66,-0.64 z m 9.88,-0.06 V 8.06 c 0,-0.46 0.36,-0.7 0.7,-0.7 h 4.6 c 0.44,0 0.66,0.32 0.66,0.66 0,0.34 -0.22,0.68 -0.66,0.68 h -3.96 v 3.88 h 3.14 c 0.46,0 0.68,0.32 0.68,0.66 0,0.34 -0.24,0.7 -0.68,0.7 h -3.14 v 4.14 h 3.96 c 0.42,0 0.64,0.34 0.64,0.66 0,0.34 -0.22,0.66 -0.64,0.66 h -4.6 c -0.34,0 -0.7,-0.12 -0.7,-0.7 z m 11.9,-2.8 v 2.86 c 0,0.44 -0.34,0.64 -0.66,0.64 -0.34,0 -0.66,-0.2 -0.66,-0.64 V 8.02 c 0,-0.4 0.22,-0.66 0.66,-0.66 h 2.7 c 0.76,0 3.16,0.22 3.16,2.92 v 2.5 c 0,1.52 -0.56,2.48 -1.84,2.9 l 1.36,2.74 c 0.28,0.54 -0.14,0.98 -0.58,0.98 -0.24,0 -0.54,-0.16 -0.7,-0.5 l -1.46,-3 z m 3.88,-3.12 v -2.5 c 0,-0.48 -0.18,-1.58 -1.84,-1.58 h -2.04 v 5.86 h 1.86 c 0.98,0 2.02,-0.22 2.02,-1.78 z m 11.88,-4.48 -2.48,5.14 v 5.32 c 0,0.44 -0.32,0.64 -0.64,0.64 -0.34,0 -0.66,-0.22 -0.66,-0.64 v -5.32 l -2.54,-5.12 c -0.42,-0.88 0.8,-1.4 1.22,-0.56 l 1.98,3.96 1.9,-3.94 c 0.44,-0.92 1.64,-0.34 1.22,0.52 z"
         id="path30"
         style="fill:#1a1a1a" />
    </g>
  </g>
</svg>
