<?xml version="1.0" encoding="UTF-8" standalone="no"?>
<svg
   width="55.48"
   height="49.931999"
   viewBox="0 0 55.48 49.931999"
   fill="none"
   version="1.1"
   id="svg8"
   sodipodi:docname="OpenSea_TW.svg"
   inkscape:version="1.1 (c4e8f9ed74, 2021-05-24)"
   xmlns:inkscape="http://www.inkscape.org/namespaces/inkscape"
   xmlns:sodipodi="http://sodipodi.sourceforge.net/DTD/sodipodi-0.dtd"
   xmlns="http://www.w3.org/2000/svg"
   xmlns:svg="http://www.w3.org/2000/svg">
  <defs
     id="defs12" />
  <sodipodi:namedview
     id="namedview10"
     pagecolor="#ffffff"
     bordercolor="#666666"
     borderopacity="1.0"
     inkscape:pageshadow="2"
     inkscape:pageopacity="0.0"
     inkscape:pagecheckerboard="0"
     showgrid="false"
     inkscape:zoom="8.0777778"
     inkscape:cx="26.059147"
     inkscape:cy="27.111417"
     inkscape:window-width="1920"
     inkscape:window-height="1017"
     inkscape:window-x="0"
     inkscape:window-y="0"
     inkscape:window-maximized="1"
     inkscape:current-layer="g1366" />
  <g
     id="g1366"
     transform="translate(-18.9,-18)">
    <path
       d="M 90,45 C 90,69.8514 69.8514,90 45,90 20.1486,90 0,69.8514 0,45 0,20.1486 20.1486,0 45,0 69.8566,0 90,20.1486 90,45 Z"
       fill="white"
       id="path2"
       style="fill:#ffffff;fill-opacity:0" />
    <path
       d="m 22.2011,46.512 0.1941,-0.3051 11.7063,-18.313 c 0.1711,-0.2682 0.5733,-0.2404 0.7028,0.0508 1.9556,4.383 3.6432,9.8339 2.8526,13.2274 -0.3375,1.3962 -1.2622,3.2872 -2.3025,5.0348 -0.134,0.2543 -0.282,0.504 -0.4392,0.7444 -0.0739,0.1109 -0.1988,0.1757 -0.3329,0.1757 H 22.5432 c -0.3237,0 -0.5132,-0.3514 -0.3421,-0.615 z"
       fill="#2081E2"
       id="path4"
       style="fill:#ffffff;fill-opacity:1" />
    <path
       d="m 74.38,49.9149 v 2.8988 c 0,0.1664 -0.1017,0.3144 -0.2497,0.3791 -0.9061,0.3884 -4.0084,1.8124 -5.2983,3.6062 -3.2918,4.5817 -5.8069,11.133 -11.4289,11.133 H 33.9489 C 25.6362,67.932 18.9,61.1727 18.9,52.8322 V 52.564 c 0,-0.2219 0.1803,-0.4022 0.4022,-0.4022 H 32.377 c 0.2589,0 0.4485,0.2404 0.4254,0.4947 -0.0925,0.8507 0.0647,1.7199 0.4669,2.5105 0.7767,1.5765 2.3857,2.5613 4.124,2.5613 H 43.866 V 52.675 h -6.3987 c -0.3283,0 -0.5224,-0.3791 -0.3329,-0.6473 0.0694,-0.1063 0.148,-0.2173 0.2312,-0.3421 0.6056,-0.8599 1.4702,-2.1961 2.3301,-3.7172 0.5872,-1.0263 1.1559,-2.1221 1.6136,-3.2224 0.0925,-0.1988 0.1664,-0.4022 0.2404,-0.6011 0.1248,-0.3513 0.2543,-0.6796 0.3467,-1.0078 0.0925,-0.2774 0.1665,-0.5687 0.2405,-0.8415 0.2173,-0.9339 0.3097,-1.9233 0.3097,-2.9497 0,-0.4022 -0.0185,-0.8229 -0.0555,-1.2252 -0.0184,-0.4392 -0.0739,-0.8784 -0.1294,-1.3176 -0.037,-0.3884 -0.1063,-0.7721 -0.1803,-1.1743 -0.0925,-0.5872 -0.2219,-1.1697 -0.3699,-1.7569 L 41.6607,33.65 c -0.111,-0.4022 -0.2035,-0.786 -0.3329,-1.1882 -0.3653,-1.2622 -0.786,-2.492 -1.2298,-3.6432 -0.1618,-0.4577 -0.3468,-0.8969 -0.5317,-1.3361 -0.2728,-0.6612 -0.5502,-1.2622 -0.8045,-1.8309 -0.1294,-0.2589 -0.2404,-0.4947 -0.3513,-0.7351 -0.1249,-0.2728 -0.2543,-0.5455 -0.3838,-0.8045 -0.0924,-0.1988 -0.1988,-0.3837 -0.2728,-0.5686 l -0.7905,-1.461 c -0.111,-0.1988 0.0739,-0.4346 0.2912,-0.3745 l 4.947,1.3408 h 0.0139 c 0.0092,0 0.0138,0.0046 0.0185,0.0046 l 0.6518,0.1803 0.7167,0.2034 0.2635,0.074 V 20.5706 C 43.866,19.1512 45.0033,18 46.4088,18 c 0.7028,0 1.3408,0.2866 1.7985,0.7536 0.4577,0.467 0.7444,1.105 0.7444,1.817 v 4.3644 l 0.527,0.1479 c 0.0416,0.0139 0.0832,0.0324 0.1202,0.0601 0.1295,0.0971 0.3144,0.2405 0.5502,0.4161 0.1849,0.148 0.3837,0.3283 0.6242,0.5132 0.4762,0.3838 1.0448,0.8785 1.669,1.4471 0.1664,0.1434 0.3282,0.2913 0.4762,0.4393 0.8044,0.7489 1.706,1.6274 2.5659,2.5983 0.2404,0.2727 0.4762,0.5501 0.7166,0.8414 0.2405,0.2959 0.4947,0.5872 0.7167,0.8785 0.2912,0.3883 0.6056,0.7905 0.8784,1.2113 0.1294,0.1988 0.2774,0.4022 0.4022,0.601 0.3514,0.5317 0.6612,1.0819 0.9571,1.632 0.1248,0.2543 0.2542,0.5317 0.3652,0.8045 0.3282,0.7351 0.5872,1.4841 0.7536,2.2331 0.0509,0.1618 0.0878,0.3375 0.1063,0.4947 v 0.0369 c 0.0555,0.222 0.074,0.4578 0.0925,0.6982 0.074,0.7674 0.037,1.5349 -0.1295,2.307 -0.0693,0.3283 -0.1618,0.638 -0.2727,0.9663 -0.111,0.3144 -0.222,0.6426 -0.3653,0.9524 -0.2774,0.6426 -0.6056,1.2853 -0.994,1.8863 -0.1248,0.2219 -0.2728,0.4577 -0.4207,0.6796 -0.1618,0.2358 -0.3283,0.4578 -0.4762,0.6751 -0.2034,0.2774 -0.4207,0.5686 -0.6427,0.8275 -0.1988,0.2728 -0.4022,0.5456 -0.6241,0.786 -0.3098,0.3652 -0.6057,0.712 -0.9154,1.0449 -0.185,0.2173 -0.3838,0.4392 -0.5872,0.638 -0.1988,0.2219 -0.4022,0.4207 -0.5872,0.6056 -0.3097,0.3098 -0.5686,0.5502 -0.7859,0.749 l -0.5086,0.467 c -0.074,0.0647 -0.1711,0.1017 -0.2728,0.1017 h -3.939 v 5.0533 h 4.9562 c 1.1096,0 2.1637,-0.393 3.0144,-1.1142 0.2912,-0.2543 1.5627,-1.3547 3.0653,-3.0144 0.0508,-0.0555 0.1155,-0.0971 0.1895,-0.1156 l 13.6897,-3.9576 c 0.2543,-0.074 0.5132,0.1202 0.5132,0.3884 z"
       fill="#2081E2"
       id="path6"
       style="fill:#ffffff;fill-opacity:1"
       inkscape:label="path6" />
  </g>
</svg>
